<svg width="180" height="38" viewBox="0 0 180 38" fill="none" xmlns="http://www.w3.org/2000/svg">
<g filter="url(#filter0_d_2031_10)">
<path d="M5.29688 29C4.64583 29 4.32031 28.6419 4.32031 27.9258V2.06641C4.32031 1.35026 4.64583 0.992188 5.29688 0.992188H7.79688C8.70833 0.992188 9.35938 1.31771 9.75 1.96875L21.9766 22.457H22.0547C22.0286 21.9362 22.0156 21.4154 22.0156 20.8945V2.06641C22.0156 1.35026 22.3411 0.992188 22.9922 0.992188H24.7891C25.4401 0.992188 25.7656 1.35026 25.7656 2.06641V27.9258C25.7656 28.6419 25.4401 29 24.7891 29H23.0703C22.1589 29 21.5078 28.6745 21.1172 28.0234L8.10938 6.28516H8.03125C8.05729 6.80599 8.07031 7.32682 8.07031 7.84766V27.9258C8.07031 28.6419 7.74479 29 7.09375 29H5.29688ZM29.2828 14.9961C29.2828 10.4388 30.4026 6.87109 32.6422 4.29297C34.8948 1.70182 38.137 0.40625 42.3687 0.40625C46.6005 0.40625 49.8362 1.70182 52.0758 4.29297C54.3284 6.87109 55.4547 10.4388 55.4547 14.9961C55.4547 19.5534 54.3284 23.1276 52.0758 25.7188C49.8362 28.2969 46.6005 29.5859 42.3687 29.5859C38.137 29.5859 34.8948 28.2969 32.6422 25.7188C30.4026 23.1276 29.2828 19.5534 29.2828 14.9961ZM33.2867 14.9961C33.2867 18.6419 34.0354 21.4805 35.5328 23.5117C37.0302 25.5299 39.3089 26.5391 42.3687 26.5391C45.4286 26.5391 47.7073 25.5299 49.2047 23.5117C50.7021 21.4805 51.4508 18.6419 51.4508 14.9961C51.4508 11.3503 50.7021 8.51823 49.2047 6.5C47.7073 4.46875 45.4286 3.45312 42.3687 3.45312C39.3089 3.45312 37.0302 4.46875 35.5328 6.5C34.0354 8.51823 33.2867 11.3503 33.2867 14.9961ZM59.9484 29C59.2974 29 58.9719 28.6419 58.9719 27.9258V2.06641C58.9719 1.35026 59.2974 0.992188 59.9484 0.992188H67.1555C72.6763 0.992188 76.5109 2.21615 78.6594 4.66406C80.8208 7.09896 81.9016 10.5299 81.9016 14.957C81.9016 19.3841 80.8208 22.8346 78.6594 25.3086C76.5109 27.7695 72.6763 29 67.1555 29H59.9484ZM62.7219 25.7969H66.9797C71.2766 25.7969 74.1672 24.8854 75.6516 23.0625C77.149 21.2396 77.8977 18.5378 77.8977 14.957C77.8977 11.3763 77.149 8.68099 75.6516 6.87109C74.1672 5.0612 71.2766 4.15625 66.9797 4.15625H62.7219V25.7969ZM86.3953 29C85.7443 29 85.4187 28.6419 85.4187 27.9258V2.06641C85.4187 1.35026 85.7443 0.992188 86.3953 0.992188H103.485C104.201 0.992188 104.559 1.28516 104.559 1.87109V3.31641C104.559 3.90234 104.201 4.19531 103.485 4.19531H89.1687V12.8672H102.313C103.029 12.8672 103.387 13.1602 103.387 13.7461V15.1914C103.387 15.7773 103.029 16.0703 102.313 16.0703H89.1687V25.7969H104.071C104.787 25.7969 105.145 26.0898 105.145 26.6758V28.1211C105.145 28.707 104.787 29 104.071 29H86.3953ZM109.6 29C108.949 29 108.623 28.6419 108.623 27.9258V2.06641C108.623 1.35026 108.949 0.992188 109.6 0.992188H117.217C121.644 0.992188 124.626 1.70833 126.162 3.14062C127.699 4.57292 128.467 6.29818 128.467 8.31641C128.467 9.91797 127.829 11.2786 126.553 12.3984C125.277 13.5052 124.04 14.1562 122.842 14.3516V14.4102C124.157 14.5273 125.622 15.1849 127.237 16.3828C128.864 17.5677 129.678 19.1823 129.678 21.2266C129.678 23.4401 128.858 25.2891 127.217 26.7734C125.59 28.2578 122.582 29 118.194 29H109.6ZM112.373 25.7969H117.569C120.368 25.7969 122.419 25.4518 123.721 24.7617C125.023 24.0716 125.674 22.8542 125.674 21.1094C125.674 19.4948 125.01 18.2448 123.682 17.3594C122.367 16.474 120.329 16.0312 117.569 16.0312H112.373V25.7969ZM112.373 13.2188H117.276C119.45 13.2188 121.221 12.7565 122.588 11.832C123.968 10.8945 124.659 9.72266 124.659 8.31641C124.659 6.97526 124.144 5.95312 123.116 5.25C122.087 4.54688 120.14 4.19531 117.276 4.19531H112.373V13.2188ZM132.004 4.35156C131.288 4.35156 130.93 4.05859 130.93 3.47266V1.87109C130.93 1.28516 131.288 0.992188 132.004 0.992188H152.668C153.384 0.992188 153.742 1.28516 153.742 1.87109V3.47266C153.742 4.05859 153.384 4.35156 152.668 4.35156H144.211V27.9258C144.211 28.6419 143.885 29 143.234 29H141.438C140.786 29 140.461 28.6419 140.461 27.9258V4.35156H132.004ZM156.087 26.8906C155.397 26.2656 155.215 25.7188 155.541 25.25L156.556 23.7852C156.908 23.2773 157.474 23.3164 158.255 23.9023C159.284 24.6706 160.352 25.3021 161.459 25.7969C162.578 26.2917 163.933 26.5391 165.521 26.5391C166.693 26.5391 167.683 26.3633 168.49 26.0117C169.297 25.6602 169.942 25.1589 170.423 24.5078C170.918 23.8438 171.166 23.043 171.166 22.1055C171.166 21.4284 171.061 20.8034 170.853 20.2305C170.658 19.6445 170.339 19.1562 169.896 18.7656C169.453 18.375 168.991 18.069 168.509 17.8477C167.715 17.4831 166.524 17.0599 164.935 16.5781C163.36 16.0964 161.979 15.5755 160.795 15.0156C159.623 14.4557 158.685 13.7786 157.982 12.9844C157.292 12.1901 156.83 11.3763 156.595 10.543C156.374 9.69661 156.263 8.73307 156.263 7.65234C156.263 5.9987 156.745 4.57292 157.709 3.375C158.672 2.17708 159.851 1.38281 161.244 0.992188C162.65 0.601562 164.076 0.40625 165.521 0.40625C167.175 0.40625 168.614 0.621094 169.837 1.05078C171.061 1.48047 172.155 2.04036 173.119 2.73047C173.796 3.21224 173.952 3.72005 173.587 4.25391L172.591 5.67969C172.292 6.10938 171.706 6.01823 170.834 5.40625C170.17 4.9375 169.356 4.5013 168.392 4.09766C167.442 3.68099 166.498 3.47266 165.56 3.47266C164.362 3.47266 163.366 3.61589 162.572 3.90234C161.778 4.17578 161.153 4.64453 160.697 5.30859C160.241 5.97266 160.013 6.74089 160.013 7.61328C160.013 8.16016 160.065 8.66797 160.17 9.13672C160.274 9.59245 160.541 10.0612 160.97 10.543C161.4 11.0247 161.921 11.3958 162.533 11.6562C163.353 12.0078 164.623 12.4245 166.341 12.9062C168.073 13.375 169.584 13.9544 170.873 14.6445C172.071 15.2826 172.93 15.9531 173.451 16.6562C173.985 17.3464 174.395 18.1016 174.681 18.9219C174.981 19.7292 175.13 20.6406 175.13 21.6562C175.13 23.5052 174.655 25.0482 173.705 26.2852C172.754 27.5221 171.628 28.3815 170.326 28.8633C169.024 29.3451 167.39 29.5859 165.423 29.5859C163.067 29.5859 161.114 29.3125 159.564 28.7656C158.015 28.2188 156.856 27.5938 156.087 26.8906Z" fill="#E57E46"/>
</g>
<defs>
<filter id="filter0_d_2031_10" x="0.320312" y="0.40625" width="178.81" height="37.1797" filterUnits="userSpaceOnUse" color-interpolation-filters="sRGB">
<feFlood flood-opacity="0" result="BackgroundImageFix"/>
<feColorMatrix in="SourceAlpha" type="matrix" values="0 0 0 0 0 0 0 0 0 0 0 0 0 0 0 0 0 0 127 0" result="hardAlpha"/>
<feOffset dy="4"/>
<feGaussianBlur stdDeviation="2"/>
<feComposite in2="hardAlpha" operator="out"/>
<feColorMatrix type="matrix" values="0 0 0 0 0 0 0 0 0 0 0 0 0 0 0 0 0 0 0.25 0"/>
<feBlend mode="normal" in2="BackgroundImageFix" result="effect1_dropShadow_2031_10"/>
<feBlend mode="normal" in="SourceGraphic" in2="effect1_dropShadow_2031_10" result="shape"/>
</filter>
</defs>
</svg>
