<svg width="167" height="32" viewBox="0 0 167 32" fill="none" xmlns="http://www.w3.org/2000/svg">
<g filter="url(#filter0_d_5_6)">
<path d="M5.89062 23C5.21354 23 5.11979 22.6562 5.60938 21.9688L9.5625 16.3594C9.73958 16.1094 10.1875 15.5938 10.9062 14.8125C11.6354 14.0208 12.3177 13.4375 12.9531 13.0625V13.0312C11.1927 12.8229 9.63542 12.2292 8.28125 11.25C6.92708 10.2708 6.25 8.86979 6.25 7.04688C6.25 4.83854 6.92188 3.21354 8.26562 2.17188C9.61979 1.11979 11.8021 0.59375 14.8125 0.59375H21.75C22.2708 0.59375 22.5312 0.880208 22.5312 1.45312V22.1406C22.5312 22.7135 22.2708 23 21.75 23H20.3125C19.7917 23 19.5312 22.7135 19.5312 22.1406V13.4219H17.9531C16.599 13.4219 15.5104 13.7708 14.6875 14.4688C13.875 15.1667 13.151 15.9896 12.5156 16.9375L8.84375 22.3906C8.57292 22.7969 8.20833 23 7.75 23H5.89062ZM9.45312 6.54688C9.45312 8.26562 10 9.41667 11.0938 10C12.1875 10.5729 13.75 10.8594 15.7812 10.8594H19.5312V3.15625H15.0312C13.3125 3.15625 11.9531 3.38542 10.9531 3.84375C9.95312 4.29167 9.45312 5.19271 9.45312 6.54688ZM26.6262 23C26.1054 23 25.845 22.7135 25.845 22.1406V1.45312C25.845 0.880208 26.1054 0.59375 26.6262 0.59375H39.9856C40.5585 0.59375 40.845 0.828125 40.845 1.29688V2.45312C40.845 2.92188 40.5585 3.15625 39.9856 3.15625H28.845V10H33.5012C37.0117 10 39.4179 10.5885 40.72 11.7656C42.0325 12.9323 42.6887 14.5104 42.6887 16.5C42.6887 18.4896 42.0325 20.0729 40.72 21.25C39.4179 22.4167 37.0117 23 33.5012 23H26.6262ZM28.845 20.4375H33.0012C35.2408 20.4375 36.8815 20.1354 37.9231 19.5312C38.9648 18.9167 39.4856 17.9062 39.4856 16.5C39.4856 15.0938 38.9648 14.0885 37.9231 13.4844C36.8815 12.8698 35.2408 12.5625 33.0012 12.5625H28.845V20.4375ZM44.5025 23C43.9608 23 43.8202 22.6562 44.0806 21.9688L51.8619 1.54688C52.1015 0.911458 52.4452 0.59375 52.8931 0.59375H55.0806C55.5285 0.59375 55.8723 0.911458 56.1119 1.54688L63.8931 21.9688C64.1535 22.6562 64.0129 23 63.4712 23H61.8775C61.3254 23 60.9504 22.7448 60.7525 22.2344L58.7994 17.0625H49.1744L47.2212 22.2344C47.0233 22.7448 46.6483 23 46.0962 23H44.5025ZM50.1587 14.5H57.815L55.4244 8.25C55.2056 7.66667 54.9869 7.02083 54.7681 6.3125C54.5598 5.60417 54.3098 4.59896 54.0181 3.29688H53.9556C53.664 4.59896 53.4087 5.60417 53.19 6.3125C52.9817 7.02083 52.7681 7.66667 52.5494 8.25L50.1587 14.5ZM66.3787 23C65.8579 23 65.5975 22.7135 65.5975 22.1406V1.45312C65.5975 0.880208 65.8579 0.59375 66.3787 0.59375H67.8162C68.3371 0.59375 68.5975 0.880208 68.5975 1.45312V10.0625H79.5037V1.45312C79.5037 0.880208 79.7642 0.59375 80.285 0.59375H81.7225C82.2433 0.59375 82.5037 0.880208 82.5037 1.45312V22.1406C82.5037 22.7135 82.2433 23 81.7225 23H80.285C79.7642 23 79.5037 22.7135 79.5037 22.1406V12.625H68.5975V22.1406C68.5975 22.7135 68.3371 23 67.8162 23H66.3787ZM87.3175 23C86.7967 23 86.5362 22.7135 86.5362 22.1406V1.45312C86.5362 0.880208 86.7967 0.59375 87.3175 0.59375H88.755C89.2758 0.59375 89.5362 0.880208 89.5362 1.45312V10.2969H90.1925C91.38 10.2969 92.3279 10 93.0362 9.40625C93.755 8.80208 94.4217 8.05208 95.0362 7.15625L99.0987 1.20312C99.38 0.796875 99.7446 0.59375 100.192 0.59375H102.021C102.687 0.59375 102.781 0.9375 102.302 1.625L97.505 8.4375C96.9425 9.22917 96.3123 9.91667 95.6144 10.5C94.9269 11.0729 94.4477 11.4115 94.1769 11.5156V11.5312C94.7602 11.6562 95.3644 11.9375 95.9894 12.375C96.6144 12.8021 97.38 13.7083 98.2862 15.0938L102.786 21.9688C103.234 22.6562 103.14 23 102.505 23H100.521C100.031 23 99.6665 22.7969 99.4269 22.3906L95.9737 16.625C95.2967 15.5 94.479 14.5833 93.5206 13.875C92.5727 13.1562 91.5415 12.7969 90.4269 12.7969H89.5362V22.1406C89.5362 22.7135 89.2758 23 88.755 23H87.3175ZM105.881 23C105.36 23 105.1 22.7135 105.1 22.1406V1.45312C105.1 0.880208 105.36 0.59375 105.881 0.59375H112.444C115.985 0.59375 118.376 1.19271 119.616 2.39062C120.855 3.57812 121.475 5.21354 121.475 7.29688C121.475 9.38021 120.855 11.0208 119.616 12.2188C118.376 13.4062 115.985 14 112.444 14H108.1V22.1406C108.1 22.7135 107.84 23 107.319 23H105.881ZM108.1 11.4375H112.491C114.782 11.4375 116.345 11.1146 117.178 10.4688C118.011 9.8125 118.428 8.75521 118.428 7.29688C118.428 5.83854 118.011 4.78646 117.178 4.14062C116.345 3.48438 114.782 3.15625 112.491 3.15625H108.1V11.4375ZM123.039 11.7969C123.039 8.15104 123.935 5.29688 125.726 3.23438C127.528 1.16146 130.122 0.125 133.507 0.125C136.893 0.125 139.481 1.16146 141.273 3.23438C143.075 5.29688 143.976 8.15104 143.976 11.7969C143.976 15.4427 143.075 18.3021 141.273 20.375C139.481 22.4375 136.893 23.4688 133.507 23.4688C130.122 23.4688 127.528 22.4375 125.726 20.375C123.935 18.3021 123.039 15.4427 123.039 11.7969ZM126.242 11.7969C126.242 14.7135 126.841 16.9844 128.039 18.6094C129.237 20.224 131.06 21.0312 133.507 21.0312C135.955 21.0312 137.778 20.224 138.976 18.6094C140.174 16.9844 140.773 14.7135 140.773 11.7969C140.773 8.88021 140.174 6.61458 138.976 5C137.778 3.375 135.955 2.5625 133.507 2.5625C131.06 2.5625 129.237 3.375 128.039 5C126.841 6.61458 126.242 8.88021 126.242 11.7969ZM145.556 3.28125C144.983 3.28125 144.696 3.04688 144.696 2.57812V1.29688C144.696 0.828125 144.983 0.59375 145.556 0.59375H162.087C162.66 0.59375 162.946 0.828125 162.946 1.29688V2.57812C162.946 3.04688 162.66 3.28125 162.087 3.28125H155.321V22.1406C155.321 22.7135 155.061 23 154.54 23H153.102C152.582 23 152.321 22.7135 152.321 22.1406V3.28125H145.556Z" fill="#E57E46"/>
</g>
<defs>
<filter id="filter0_d_5_6" x="0.875" y="0.125" width="166.071" height="31.3438" filterUnits="userSpaceOnUse" color-interpolation-filters="sRGB">
<feFlood flood-opacity="0" result="BackgroundImageFix"/>
<feColorMatrix in="SourceAlpha" type="matrix" values="0 0 0 0 0 0 0 0 0 0 0 0 0 0 0 0 0 0 127 0" result="hardAlpha"/>
<feOffset dy="4"/>
<feGaussianBlur stdDeviation="2"/>
<feComposite in2="hardAlpha" operator="out"/>
<feColorMatrix type="matrix" values="0 0 0 0 0 0 0 0 0 0 0 0 0 0 0 0 0 0 0.15 0"/>
<feBlend mode="normal" in2="BackgroundImageFix" result="effect1_dropShadow_5_6"/>
<feBlend mode="normal" in="SourceGraphic" in2="effect1_dropShadow_5_6" result="shape"/>
</filter>
</defs>
</svg>
