<svg width="171" height="49" viewBox="0 0 171 49" fill="none" xmlns="http://www.w3.org/2000/svg">
<path d="M65.7547 32.25H63.4252L68.6595 17.7045H71.1951L76.4294 32.25H74.0999L69.9877 20.3466H69.874L65.7547 32.25ZM66.1453 26.554H73.7022V28.4006H66.1453V26.554ZM78.3595 32.25V21.3409H80.4831V25.9148H81.5058L85.1066 21.3409H87.7345L83.5086 26.6463L87.7842 32.25H85.1492L81.8609 27.8892H80.4831V32.25H78.3595ZM89.4337 32.25V21.3409H91.5573V25.9148H92.58L96.1809 21.3409H98.8087L94.5828 26.6463L98.8584 32.25H96.2235L92.9351 27.8892H91.5573V32.25H89.4337ZM103.683 32.4915C102.991 32.4915 102.366 32.3636 101.808 32.108C101.249 31.8475 100.806 31.4711 100.48 30.9787C100.158 30.4863 99.9965 29.8826 99.9965 29.1676C99.9965 28.5521 100.115 28.0455 100.352 27.6477C100.588 27.25 100.908 26.9351 101.31 26.7031C101.713 26.4711 102.163 26.2959 102.66 26.1776C103.157 26.0592 103.664 25.9692 104.18 25.9077C104.833 25.8319 105.363 25.7704 105.771 25.723C106.178 25.6709 106.474 25.5881 106.658 25.4744C106.843 25.3608 106.935 25.1761 106.935 24.9205V24.8707C106.935 24.2505 106.76 23.7699 106.41 23.429C106.064 23.0881 105.548 22.9176 104.862 22.9176C104.147 22.9176 103.583 23.0762 103.171 23.3935C102.764 23.706 102.482 24.054 102.326 24.4375L100.33 23.983C100.567 23.3201 100.913 22.785 101.367 22.3778C101.827 21.9659 102.355 21.6676 102.951 21.483C103.548 21.2936 104.175 21.1989 104.833 21.1989C105.269 21.1989 105.73 21.2509 106.218 21.3551C106.711 21.4545 107.17 21.6392 107.596 21.9091C108.027 22.179 108.38 22.5649 108.654 23.0668C108.929 23.5639 109.066 24.2102 109.066 25.0057V32.25H106.992V30.7585H106.907C106.77 31.0331 106.564 31.303 106.289 31.5682C106.015 31.8333 105.662 32.0535 105.231 32.2287C104.8 32.4039 104.284 32.4915 103.683 32.4915ZM104.144 30.7869C104.731 30.7869 105.233 30.6709 105.65 30.4389C106.071 30.2069 106.391 29.9039 106.609 29.5298C106.831 29.151 106.943 28.7462 106.943 28.3153V26.9091C106.867 26.9848 106.72 27.0559 106.502 27.1222C106.289 27.1837 106.045 27.2382 105.771 27.2855C105.496 27.3281 105.229 27.3684 104.968 27.4062C104.708 27.4394 104.49 27.4678 104.315 27.4915C103.903 27.5436 103.526 27.6312 103.185 27.7543C102.849 27.8774 102.579 28.0549 102.376 28.2869C102.177 28.5142 102.078 28.8172 102.078 29.196C102.078 29.7216 102.272 30.1193 102.66 30.3892C103.048 30.6544 103.543 30.7869 104.144 30.7869ZM112.846 36.3409C112.529 36.3409 112.24 36.3149 111.98 36.2628C111.719 36.2154 111.525 36.1634 111.397 36.1065L111.909 34.3665C112.297 34.4706 112.643 34.5156 112.946 34.5014C113.249 34.4872 113.516 34.3736 113.748 34.1605C113.985 33.9474 114.193 33.5994 114.373 33.1165L114.636 32.392L110.645 21.3409H112.917L115.68 29.8068H115.794L118.557 21.3409H120.836L116.341 33.706C116.132 34.2741 115.867 34.7547 115.545 35.1477C115.223 35.5455 114.84 35.8438 114.395 36.0426C113.95 36.2415 113.433 36.3409 112.846 36.3409ZM130.226 25.8793V27.7188H124.317V25.8793H130.226ZM124.913 21.3409V32.25H122.832V21.3409H124.913ZM131.71 21.3409V32.25H129.636V21.3409H131.71ZM133.198 23.1733V21.3409H142.402V23.1733H138.844V32.25H136.77V23.1733H133.198Z" fill="#5C5C5C"/>
<path fill-rule="evenodd" clip-rule="evenodd" d="M41.04 19.6C41.04 21.2913 39.5088 22.6625 37.62 22.6625C35.7312 22.6625 34.2 21.2913 34.2 19.6C34.2 17.9086 35.7312 16.5375 37.62 16.5375C39.5088 16.5375 41.04 17.9086 41.04 19.6ZM44.46 19.6C44.46 22.9827 41.3976 25.725 37.62 25.725C33.8424 25.725 30.78 22.9827 30.78 19.6C30.78 16.2172 33.8424 13.475 37.62 13.475C41.3976 13.475 44.46 16.2172 44.46 19.6ZM34.2 27.2562C30.4224 27.2562 27.36 29.9985 27.36 33.3812V34.9125H30.78V33.3812C30.78 31.6899 32.3112 30.3187 34.2 30.3187H41.04C42.9288 30.3187 44.46 31.6899 44.46 33.3812V34.9125H47.88V33.3812C47.88 29.9985 44.8176 27.2562 41.04 27.2562H34.2Z" fill="#5C5C5C"/>
</svg>
