<svg width="180" height="45" viewBox="0 0 180 45" fill="none" xmlns="http://www.w3.org/2000/svg">
<g filter="url(#filter0_d_2066_291)">
<path d="M4.83594 36.2266C4.3151 36.2266 4.05469 35.901 4.05469 35.25V26.8711C4.05469 26.1549 4.38021 25.7969 5.03125 25.7969H6.63281C8.85938 23.1276 10.1419 20.1719 10.4805 16.9297C10.832 13.6875 11.0078 10.5039 11.0078 7.37891V2.06641C11.0078 1.35026 11.3333 0.992188 11.9844 0.992188H27.0234C27.6745 0.992188 28 1.35026 28 2.06641V25.7969H30.5C31.151 25.7969 31.4766 26.1549 31.4766 26.8711V35.25C31.4766 35.901 31.2161 36.2266 30.6953 36.2266H29.0156C28.4948 36.2266 28.2344 35.901 28.2344 35.25V29H7.29688V35.25C7.29688 35.901 7.03646 36.2266 6.51562 36.2266H4.83594ZM10.5391 25.7969H24.25V4.19531H14.25V8.47266C14.25 14.3841 13.8268 18.5703 12.9805 21.0312C12.1471 23.4922 11.3333 25.0807 10.5391 25.7969ZM32.7867 18.7461C32.7867 15.6862 33.594 13.1602 35.2086 11.168C36.8362 9.16276 39.2125 8.16016 42.3375 8.16016C45.4625 8.16016 47.8323 9.16276 49.4469 11.168C51.0745 13.1602 51.8883 15.6862 51.8883 18.7461C51.8883 21.806 51.0745 24.3385 49.4469 26.3438C47.8323 28.3359 45.4625 29.332 42.3375 29.332C39.2125 29.332 36.8362 28.3359 35.2086 26.3438C33.594 24.3385 32.7867 21.806 32.7867 18.7461ZM36.4195 18.7461C36.4195 21.4805 36.9599 23.5052 38.0406 24.8203C39.1214 26.1354 40.5536 26.793 42.3375 26.793C44.1214 26.793 45.5536 26.1354 46.6344 24.8203C47.7151 23.5052 48.2555 21.4805 48.2555 18.7461C48.2555 16.0117 47.7151 13.987 46.6344 12.6719C45.5536 11.3568 44.1214 10.6992 42.3375 10.6992C40.5536 10.6992 39.1214 11.3568 38.0406 12.6719C36.9599 13.987 36.4195 16.0117 36.4195 18.7461ZM51.4797 29.1562C51.1932 29.0391 51.0826 28.8438 51.1477 28.5703L51.4992 26.9492C51.5513 26.7018 51.7206 26.6107 52.007 26.6758C52.3065 26.7539 52.5669 26.793 52.7883 26.793C53.9602 26.793 54.8911 25.901 55.5812 24.1172C56.2844 22.3203 56.6359 18.987 56.6359 14.1172V9.37109C56.6359 8.78516 57.0461 8.49219 57.8664 8.49219H68.9016C69.4875 8.49219 69.7805 8.78516 69.7805 9.37109V28.1211C69.7805 28.707 69.4875 29 68.9016 29H67.2219C66.6359 29 66.343 28.707 66.343 28.1211V11.0703H59.6437V15.1133C59.6437 19.931 59.1164 23.5052 58.0617 25.8359C57.0201 28.1667 55.4055 29.332 53.218 29.332C52.3326 29.332 51.7531 29.2734 51.4797 29.1562ZM74.5086 29C73.9227 29 73.6297 28.707 73.6297 28.1211V9.37109C73.6297 8.78516 73.9227 8.49219 74.5086 8.49219H86.3055C86.8914 8.49219 87.1844 8.72005 87.1844 9.17578V10.3867C87.1844 10.8424 86.8914 11.0703 86.3055 11.0703H77.0672V28.1211C77.0672 28.707 76.7742 29 76.1883 29H74.5086ZM88.0062 14.9961C88.0062 10.4388 89.126 6.87109 91.3656 4.29297C93.6182 1.70182 96.8604 0.40625 101.092 0.40625C105.324 0.40625 108.56 1.70182 110.799 4.29297C113.052 6.87109 114.178 10.4388 114.178 14.9961C114.178 19.5534 113.052 23.1276 110.799 25.7188C108.56 28.2969 105.324 29.5859 101.092 29.5859C96.8604 29.5859 93.6182 28.2969 91.3656 25.7188C89.126 23.1276 88.0062 19.5534 88.0062 14.9961ZM92.0102 14.9961C92.0102 18.6419 92.7589 21.4805 94.2562 23.5117C95.7536 25.5299 98.0323 26.5391 101.092 26.5391C104.152 26.5391 106.431 25.5299 107.928 23.5117C109.426 21.4805 110.174 18.6419 110.174 14.9961C110.174 11.3503 109.426 8.51823 107.928 6.5C106.431 4.46875 104.152 3.45312 101.092 3.45312C98.0323 3.45312 95.7536 4.46875 94.2562 6.5C92.7589 8.51823 92.0102 11.3503 92.0102 14.9961ZM116.035 18.7461C116.035 15.8424 116.758 13.3555 118.203 11.2852C119.661 9.20182 121.432 8.16016 123.516 8.16016C124.883 8.16016 125.924 8.40104 126.641 8.88281C127.37 9.35156 128.04 10.0352 128.652 10.9336H128.691C128.665 10.543 128.652 10.1523 128.652 9.76172V1.75391C128.652 1.16797 128.945 0.875 129.531 0.875H131.211C131.797 0.875 132.09 1.16797 132.09 1.75391V9.76172C132.09 10.1523 132.077 10.543 132.051 10.9336H132.09C132.702 10.0352 133.366 9.35156 134.082 8.88281C134.811 8.40104 135.859 8.16016 137.227 8.16016C139.31 8.16016 141.074 9.20182 142.52 11.2852C143.978 13.3555 144.707 15.8424 144.707 18.7461C144.707 21.6497 143.978 24.1432 142.52 26.2266C141.074 28.2969 139.31 29.332 137.227 29.332C135.859 29.332 134.811 29.0977 134.082 28.6289C133.366 28.1471 132.702 27.457 132.09 26.5586H132.051C132.077 26.9492 132.09 27.3398 132.09 27.7305V35.9336C132.09 36.5195 131.797 36.8125 131.211 36.8125H129.531C128.945 36.8125 128.652 36.5195 128.652 35.9336V27.7305C128.652 27.3398 128.665 26.9492 128.691 26.5586H128.652C128.04 27.457 127.37 28.1471 126.641 28.6289C125.924 29.0977 124.883 29.332 123.516 29.332C121.432 29.332 119.661 28.2969 118.203 26.2266C116.758 24.1432 116.035 21.6497 116.035 18.7461ZM119.668 18.7461C119.668 21.0898 120.072 23.0169 120.879 24.5273C121.686 26.0378 122.936 26.793 124.629 26.793C125.671 26.793 126.602 26.3177 127.422 25.3672C128.242 24.4036 128.652 22.9779 128.652 21.0898V16.4023C128.652 14.5143 128.242 13.0951 127.422 12.1445C126.602 11.181 125.671 10.6992 124.629 10.6992C122.936 10.6992 121.686 11.4544 120.879 12.9648C120.072 14.4753 119.668 16.4023 119.668 18.7461ZM132.09 21.0898C132.09 22.9779 132.5 24.4036 133.32 25.3672C134.141 26.3177 135.072 26.793 136.113 26.793C137.806 26.793 139.056 26.0378 139.863 24.5273C140.671 23.0169 141.074 21.0898 141.074 18.7461C141.074 16.4023 140.671 14.4753 139.863 12.9648C139.056 11.4544 137.806 10.6992 136.113 10.6992C135.072 10.6992 134.141 11.181 133.32 12.1445C132.5 13.0951 132.09 14.5143 132.09 16.4023V21.0898ZM146.427 18.7461C146.427 15.8424 147.15 13.3555 148.595 11.2852C150.054 9.20182 151.824 8.16016 153.908 8.16016C155.275 8.16016 156.317 8.40104 157.033 8.88281C157.762 9.35156 158.433 10.0352 159.045 10.9336H159.084C159.058 10.543 159.045 10.1523 159.045 9.76172V1.75391C159.045 1.16797 159.337 0.875 159.923 0.875H161.603C162.189 0.875 162.482 1.16797 162.482 1.75391V9.76172C162.482 10.1523 162.469 10.543 162.443 10.9336H162.482C163.094 10.0352 163.758 9.35156 164.474 8.88281C165.203 8.40104 166.252 8.16016 167.619 8.16016C169.702 8.16016 171.466 9.20182 172.912 11.2852C174.37 13.3555 175.099 15.8424 175.099 18.7461C175.099 21.6497 174.37 24.1432 172.912 26.2266C171.466 28.2969 169.702 29.332 167.619 29.332C166.252 29.332 165.203 29.0977 164.474 28.6289C163.758 28.1471 163.094 27.457 162.482 26.5586H162.443C162.469 26.9492 162.482 27.3398 162.482 27.7305V35.9336C162.482 36.5195 162.189 36.8125 161.603 36.8125H159.923C159.337 36.8125 159.045 36.5195 159.045 35.9336V27.7305C159.045 27.3398 159.058 26.9492 159.084 26.5586H159.045C158.433 27.457 157.762 28.1471 157.033 28.6289C156.317 29.0977 155.275 29.332 153.908 29.332C151.824 29.332 150.054 28.2969 148.595 26.2266C147.15 24.1432 146.427 21.6497 146.427 18.7461ZM150.06 18.7461C150.06 21.0898 150.464 23.0169 151.271 24.5273C152.078 26.0378 153.328 26.793 155.021 26.793C156.063 26.793 156.994 26.3177 157.814 25.3672C158.634 24.4036 159.045 22.9779 159.045 21.0898V16.4023C159.045 14.5143 158.634 13.0951 157.814 12.1445C156.994 11.181 156.063 10.6992 155.021 10.6992C153.328 10.6992 152.078 11.4544 151.271 12.9648C150.464 14.4753 150.06 16.4023 150.06 18.7461ZM162.482 21.0898C162.482 22.9779 162.892 24.4036 163.712 25.3672C164.533 26.3177 165.464 26.793 166.505 26.793C168.198 26.793 169.448 26.0378 170.255 24.5273C171.063 23.0169 171.466 21.0898 171.466 18.7461C171.466 16.4023 171.063 14.4753 170.255 12.9648C169.448 11.4544 168.198 10.6992 166.505 10.6992C165.464 10.6992 164.533 11.181 163.712 12.1445C162.892 13.0951 162.482 14.5143 162.482 16.4023V21.0898Z" fill="#E57E46"/>
</g>
<defs>
<filter id="filter0_d_2066_291" x="0.0546875" y="0.40625" width="179.045" height="44.4062" filterUnits="userSpaceOnUse" color-interpolation-filters="sRGB">
<feFlood flood-opacity="0" result="BackgroundImageFix"/>
<feColorMatrix in="SourceAlpha" type="matrix" values="0 0 0 0 0 0 0 0 0 0 0 0 0 0 0 0 0 0 127 0" result="hardAlpha"/>
<feOffset dy="4"/>
<feGaussianBlur stdDeviation="2"/>
<feComposite in2="hardAlpha" operator="out"/>
<feColorMatrix type="matrix" values="0 0 0 0 0 0 0 0 0 0 0 0 0 0 0 0 0 0 0.25 0"/>
<feBlend mode="normal" in2="BackgroundImageFix" result="effect1_dropShadow_2066_291"/>
<feBlend mode="normal" in="SourceGraphic" in2="effect1_dropShadow_2066_291" result="shape"/>
</filter>
</defs>
</svg>
