<svg width="41" height="41" viewBox="0 0 41 41" fill="none" xmlns="http://www.w3.org/2000/svg">
<path d="M23 11.5H19V13C19 13 16.3488 13.5181 15 14.5C13.7671 15.3976 13.2156 16.1533 12.5 17.5C11.9205 18.5906 11.6926 19.2802 11.5 20.5C11.3173 21.6572 11.2925 22.347 11.5 23.5C11.7634 24.9636 12.2208 25.7334 13 27C13.6552 28.0649 15.5 29.5 15.5 29.5C15.5 29.5 17.0522 30.6607 18.5 31C20.4011 31.4456 21.6225 31.5364 23.5 31C24.7595 30.6402 25.4341 30.2613 26.5 29.5C27.6235 28.6975 28.2178 28.1378 29 27C29.8425 25.7746 30.2366 24.9636 30.5 23.5C30.7075 22.347 30.7541 21.6437 30.5 20.5C30.2159 19.2213 30.1549 18.6344 29.5 17.5C28.796 16.2806 28.0787 15.405 27 14.5C25.7219 13.4277 23 13 23 13V11.5Z" stroke="#E57E46"/>
<path d="M23.8789 6.34033L23.5 8.68065L21 8.68065M23.8789 6.34033C23.8789 6.34033 27.8237 7.00766 29.676 8.68066C31.2393 10.0927 32.2789 11.4587 33.2992 13.3613C34.2483 15.1312 34.3366 16.047 34.7484 18.042C35.1168 19.8263 35.0492 20.9236 34.7484 22.7226C34.3666 25.0061 33.7955 26.2715 32.5745 28.1834C31.4409 29.9585 30.5797 30.8318 28.9514 32.0839C27.4066 33.2718 26.4289 33.8628 24.6036 34.4242C21.8826 35.2612 20.1124 35.1194 17.3572 34.4242C15.2589 33.8948 13.0094 32.0839 13.0094 32.0839C13.0094 32.0839 10.3357 29.8448 9.38622 28.1834C8.25688 26.2073 7.59411 25.0061 7.21232 22.7226C6.91152 20.9236 6.9475 19.8475 7.21232 18.042C7.49145 16.1388 7.82178 15.0628 8.66159 13.3613C9.69867 11.2601 10.4979 10.0811 12.2848 8.68066C14.2395 7.14865 18.0818 6.34033 18.0818 6.34033M23.8789 6.34033L21 5.5L18.0818 6.34033M18.0818 6.34033L18.5 8.68066L21 8.68065M21 8.68065V11.5" stroke="#E57E46"/>
<path d="M23 1H19L17.5 4L12 6L9 5.5L6 8.5L7 11L5 16.5L2 17.5L1.5 22.5L4.5 23.5L7 29.5L6 32.5L9.5 35.5L12 34.5L17.5 37L19 40H23L25 37L30 34.5L32.5 35.5L36 32L35 29.5L37.5 24.5L40.5 22.5V18.5L37.5 17L35 11.5L36 9L33 5L30 6.5L24.5 4.5L23 1Z" stroke="#E57E46"/>
<path fill-rule="evenodd" clip-rule="evenodd" d="M22.5 17C24.0188 17 25.25 18.2312 25.25 19.75C25.25 21.2343 24.0741 22.4439 22.6031 22.4981L22.5 22.5H20.2083V23.4167H22.0417C22.2948 23.4167 22.5 23.6219 22.5 23.875C22.5 24.1281 22.2948 24.3333 22.0417 24.3333H20.2083V25.7083C20.2083 25.9615 20.0031 26.1667 19.75 26.1667C19.4969 26.1667 19.2917 25.9615 19.2917 25.7083V24.3333H17.4583C17.2052 24.3333 17 24.1281 17 23.875C17 23.6219 17.2052 23.4167 17.4583 23.4167H19.2917V22.5H17.4583C17.2052 22.5 17 22.2948 17 22.0417C17 21.8066 17.1769 21.6129 17.4049 21.5864L17.4583 21.5833H19.2917V17.4583C19.2917 17.2052 19.4969 17 19.75 17H22.5ZM22.5 17.9167H20.2083V21.5833H22.5C23.5125 21.5833 24.3333 20.7625 24.3333 19.75C24.3333 18.7682 23.5615 17.9666 22.5915 17.9189L22.5 17.9167Z" fill="#E57E46"/>
</svg>
